HIERARCHY
ROOT Pelvis
{
	OFFSET 0.32 0 0
	CHANNELS 6 Xposition Yposition Zposition Zrotation Xrotation Yrotation
	JOINT SpineShoulder
	{
		OFFSET 0 6.740009 0
		CHANNELS 3 Zrotation Xrotation Yrotation
		JOINT Neck
		{
			OFFSET 0 2.640004 0
			CHANNELS 3 Zrotation Xrotation Yrotation
			End Site
			{
				OFFSET 0 4.719998 0
			}
		}
		JOINT ShoulderLeft
		{
			OFFSET 3.340001 0.6799955 0
			CHANNELS 3 Zrotation Xrotation Yrotation
			JOINT ElbowLeft
			{
				OFFSET 5.307964 0 0
				CHANNELS 3 Zrotation Xrotation Yrotation
				End Site
				{
					OFFSET 4.786495 0 0
				}
			}
		}
		JOINT ShoulderRight
		{
			OFFSET -3.300001 0.6799955 0
			CHANNELS 3 Zrotation Xrotation Yrotation
			JOINT ElbowRight
			{
				OFFSET -5.307964 0 0
				CHANNELS 3 Zrotation Xrotation Yrotation
				End Site
				{
					OFFSET -4.786495 0 0
				}
			}
		}
	}
	JOINT HipLeft
	{
		OFFSET 2.560001 -1.599997 0
		CHANNELS 3 Zrotation Xrotation Yrotation
		JOINT KneeLeft
		{
			OFFSET 0 -8.508625 0
			CHANNELS 3 Zrotation Xrotation Yrotation
			End Site
			{
				OFFSET 0 -7.880188 0
			}
		}
	}
	JOINT HipRight
	{
		OFFSET -2.560001 -1.599997 0
		CHANNELS 3 Zrotation Xrotation Yrotation
		JOINT KneeRight
		{
			OFFSET 0 -8.508625 0
			CHANNELS 3 Zrotation Xrotation Yrotation
			End Site
			{
				OFFSET 0 -7.880188 0
			}
		}
	}
}
MOTION
Frames: 38
Frame Time: 0.03333334
0 0 0 -5.544852 13.01817 359.8675 -10.007 351.3251 357.6697 -342.3144 9.383444 0.4385549 -196.7298 14.58444 4.264457 -164.0462 11.4351 2.732087 -117.1989 318.2746 16.45253 -205.8329 314.3318 12.67234 -10.05286 6.283393 359.7143 -334.6582 6.542598 3.735065 -345.396 5.827075 1.209313 -20.65964 0.3938243 356.6633
0 0 0 -5.840265 11.78083 8.786857E-05 -17.76841 346.4902 356.3911 -334.0333 15.77691 359.1257 -189.81 7.661716 2.383343 -164.3302 7.888496 13.0239 -100.9884 313.4235 27.26511 -203.4668 312.3634 12.80495 -10.92928 6.029103 359.7579 -339.9057 8.234284 2.907357 -350.0014 5.497587 0.8341615 -10.9358 3.397528 358.5413
0 0 0 -351.7788 10.94825 149.1393 -5.457108 22.76422 3.875711 -330.0151 0.6196166 2.383643 -296.692 41.55021 351.2228 -252.8347 65.2242 27.61185 -31.58428 359.3079 17.00426 -151.8421 341.8536 179.7284 -342.3142 343.218 0.286269 -3.943522 19.16545 358.9547 -335.372 346.5481 359.7896 -0.2336636 17.12216 356.5809
0 0 0 -352.8539 10.10162 117.1858 -24.98755 20.15586 22.65434 -321.0662 6.059681 3.807514 -304.9472 24.26089 18.50377 -195.243 54.97282 327.1589 -20.17264 349.3894 28.87594 -157.9955 336.51 2.327817 -335.3799 359.612 357.6727 -6.752741 9.997728 358.5359 -333.5567 3.336442 356.4301 -7.477035 6.005701 359.1216
0 0 0 -352.9048 10.30811 115.706 -43.11574 33.05892 31.73363 -312.5833 350.5396 15.74784 -302.3887 12.39772 35.17341 -197.8688 57.63876 332.3478 -11.83661 324.2086 21.5973 -152.8536 326.3513 359.9797 -342.2812 1.893457 357.8868 -2.801104 9.487943 358.4431 -341.8199 3.609491 357.4671 -0.504046 9.840476 357.9564
0 0 0 -3.233284 11.26415 22.32645 -32.10679 348.8342 351.2014 -324.945 17.62197 358.4848 -195.4756 24.63004 23.77456 -158.7436 18.55433 5.687445 -69.76267 313.8436 53.28733 -202.3302 309.8071 0.4195135 -7.842289 27.91201 0.8567463 -346.3417 341.608 5.707905 -350.4263 19.38146 359.1069 -13.97674 352.3598 356.0078
0 0 0 -0.956443 10.84313 48.39912 -63.4782 23.38556 353.5911 -295.8602 5.235361 8.990664 -204.178 45.25586 63.9158 -150.8816 30.51439 351.2335 -32.85061 310.3464 45.10462 -215.5457 303.1577 313.6379 -357.8138 22.80424 358.1721 -357.6808 340.9169 2.490865 -350.508 12.01535 358.8552 -12.15782 0.3868237 357.848
0 0 0 -1.655114 12.48052 180.4634 -348.3585 12.7524 355.9075 -6.705879 7.550623 359.5414 -295.2563 43.81992 324.9737 -250.0081 49.01256 33.1261 -106.5917 50.15711 52.75562 -106.423 65.01479 304.3481 -7.173941 351.4286 0.3684404 -345.6391 5.92171 356.922 -355.3286 354.4474 359.7902 -11.72605 8.298037 2.222823
0 0 0 -2.090555 11.642 177.8689 -348.7662 12.45227 357.1618 -9.225902 7.17186 359.6345 -302.122 44.35443 328.9926 -243.0633 50.58887 28.25008 -106.9833 49.62123 52.23742 -108.0775 62.94545 310.5371 -7.31869 347.493 0.2193011 -346.1983 11.86071 356.2268 -356.3263 351.1166 0.1123982 -11.15254 11.43649 2.451433
0 0 0 -359.8871 11.74889 18.16871 -13.82685 356.2053 351.6064 -346.5899 11.5379 0.4306083 -221.1041 38.97508 29.0109 -149.1967 31.22564 354.937 -106.2005 310.0129 35.85337 -247.9144 320.3487 305.7942 -10.94388 20.30372 0.2213357 -343.4438 345.608 5.599363 -3.456824 15.49259 359.6138 -359.859 352.1897 0.05526824
0 0 0 -0.4623129 12.04835 23.61221 -6.972047 357.0949 351.0606 -351.5647 5.583189 0.3493747 -223.0486 28.10386 25.49859 -160.7708 18.93834 344.4959 -128.5978 329.0497 20.78542 -197.772 327.1647 358.496 -11.50068 19.95204 0.120057 -346.6582 349.3761 4.153607 -350.8514 7.307899 0.03436128 -21.64486 5.348003 356.8476
0 0 0 -2.012012 12.16792 24.30481 -12.85852 359.3311 355.5884 -349.0363 5.153064 0.9861549 -225.3563 36.17327 37.58137 -156.7747 21.84149 0.1185356 -130.1668 341.4063 17.44891 -199.4973 342.1557 344.0923 -6.247196 14.69422 359.7414 -352.1491 357.5469 1.942796 -354.9275 8.235262 359.9358 -9.147672 4.651388 358.4002
0 0 0 -0.2435155 9.105422 5.993946 -354.1407 42.03145 350.6169 -359.4065 337.0556 0.1786765 -300.4259 317.387 24.52914 -129.2431 58.97223 278.6367 -57.13688 314.6323 345.3932 -123.9039 316.1523 31.9628 -3.079717 1.269698 359.7815 -354.9157 22.53583 359.9229 -355.3614 3.073765 0.225565 -7.504114 16.11745 359.4942
0 0 0 -2.50821 11.8731 31.86172 -21.73658 3.638511 358.8453 -336.2143 358.0422 3.143285 -261.61 43.31258 79.25643 -137.9456 41.37022 319.4359 -98.80834 322.5618 35.33121 -210.4582 322.0555 328.8112 -3.563987 10.05908 359.5905 -354.9861 357.0845 1.08529 -353.4556 6.712218 0.02849919 -9.578676 1.45092 358.4603
0 0 0 -359.2664 10.08059 176.1364 -334.3907 33.91267 349.7751 -19.87923 340.3366 356.0681 -313.8167 29.44213 352.3565 -254.8622 48.63908 33.49628 -81.39429 33.16518 1.674091 -119.332 43.51427 322.3118 -359.5199 342.9173 0.0214317 -357.4045 20.66167 358.8703 -357.2627 346.8267 0.06818558 -0.01242016 17.17177 359.6056
0 0 0 -0.4945303 13.15322 176.8033 -347.4323 11.70974 357.1674 -10.32919 6.947676 359.9021 -293.4946 49.68713 318.3561 -256.0041 54.44611 49.53796 -117.6963 51.72389 65.76919 -82.15662 52.78923 280.1626 -6.251266 354.2595 0.4694763 -353.0881 8.352359 358.7434 -353.8335 356.2202 359.5334 -4.918209 8.143824 0.5362192
0 0 0 -0.9544892 11.59431 44.25285 -14.40371 6.753142 348.8727 -342.1821 358.4315 2.294877 -283.6043 39.64004 89.41412 -131.3528 50.391 309.6412 -115.6255 332.717 30.48289 -214.472 339.4434 325.1791 -356.7954 15.59193 358.7809 -355.7613 343.0529 3.040417 -344.1225 4.372242 0.3666997 -17.75507 357.318 358.1073
0 0 0 -358.6253 11.09835 179.4401 -346.2239 21.67048 356.3714 -10.52452 355.0092 359.0533 -298.9671 42.95165 333.241 -255.3401 50.98099 39.26834 -84.91286 48.1236 29.50085 -107.1577 57.28543 308.9954 -4.092967 349.8557 359.9206 -347.5891 9.014579 357.1653 -349.2893 353.6781 359.4756 -4.732737 9.517295 0.3101511
0 0 0 -0.8051127 11.89136 174.1391 -337.5284 32.95065 352.3809 -20.69092 344.4755 356.3086 -328.2931 30.62472 352.2813 -237.3871 51.32958 25.27154 -86.13857 48.87426 17.567 -95.99079 49.5111 300.3784 -5.826965 352.7833 0.3620942 -346.4127 5.455102 357.2924 -354.4066 356.0463 359.686 -2.994101 4.905457 0.2084914
0 0 0 -1.268878 10.45632 33.23487 -37.74987 344.9237 344.1084 -328.7865 29.29246 356.6393 -201.0226 22.74697 25.83752 -144.3327 22.39198 339.4774 -99.21893 326.4694 42.61412 -191.8557 338.2738 328.5115 -0.8833469 14.65355 359.4335 -345.8502 346.0252 5.117983 -355.0492 12.13984 359.3789 -6.000936 359.8223 358.8622
0 0 0 -2.022039 7.341096 10.07888 -354.3025 35.95982 350.9435 -1.3886 344.8747 359.1016 -315.2523 325.0849 22.80923 -200.673 57.25413 349.5451 -42.48941 316.1739 354.2205 -318.7328 22.56466 166.8173 -6.44013 7.63091 0.05069471 -347.823 10.51515 1.178482 -353.8277 5.104076 0.1661124 -6.68461 14.68441 359.4015
0 0 0 -3.587623 7.104923 8.169209 -355.6221 41.33144 352.7199 -355.3441 340.7085 1.989401 -312.3927 320.8718 28.10333 -36.1216 25.60231 196.6649 -39.91726 313.0747 348.5017 -273.6755 72.05428 128.947 -2.692536 5.738094 0.08603926 -352.7812 10.53605 0.6660674 -351.2542 6.671044 0.2158336 -7.609667 11.48472 359.1795
0 0 0 -358.7227 13.86516 174.3056 -345.4838 14.97051 358.237 -11.56697 4.200282 359.8022 -289.3525 55.09877 311.0117 -271.0721 56.29566 63.2376 -111.1199 50.50173 56.51631 -85.86131 48.59994 284.8689 -4.270674 356.6 0.3990493 -347.5609 9.046958 357.4901 -355.3565 357.8349 359.5211 -2.088838 10.7904 0.03569443
0 0 0 -2.353636 7.995458 5.51909 -357.5178 46.18526 353.0201 -348.062 336.5348 6.608036 -290.8167 321.986 35.31614 -206.3721 34.68649 339.2903 -53.27494 313.6341 338.6559 -311.9986 28.88245 168.9064 -0.6215574 3.605959 0.02505081 -351.4105 17.32605 359.9128 -355.034 6.146185 0.1742446 -3.238135 14.94272 359.5604
0 0 0 -2.194967 12.56911 36.81398 -16.77881 6.25885 356.3281 -340.384 353.9706 3.268207 -270.278 40.2714 81.74013 -135.7527 39.0987 316.1191 -120.3517 339.2848 25.53246 -219.6889 350.8142 321.6359 -1.059394 10.4045 359.4598 -356.239 353.453 1.194407 -353.9198 6.005651 359.9845 -8.654555 1.330469 358.6406
0 0 0 -0.3831991 13.00516 33.56104 -11.80817 9.931851 356.7162 -346.2134 350.3362 3.10749 -282.7905 40.05298 88.91942 -137.2753 46.75473 314.3153 -131.2618 345.2606 19.96651 -220.0295 351.083 333.2188 -7.496354 11.78595 359.3318 -350.6953 353.1974 2.35578 -358.0941 5.820544 359.7355 -7.141012 1.783862 358.9135
0 0 0 -2.54459 7.872643 8.944089 -354.801 39.30105 352.4274 -353.7131 339.688 3.267066 -308.3341 322.9034 24.64246 -26.92396 312.8824 197.5812 -48.11317 315.6436 344.3942 -319.6601 12.41983 164.4414 -359.7955 1.04541 0.02462101 -356.0406 25.52672 359.6639 -350.7895 4.829869 0.3253911 -5.153004 16.27936 358.9924
0 0 0 -0.4969051 7.007457 12.76415 -352.2794 42.46962 349.7177 -359.8028 340.4485 0.2843986 -314.6123 320.4505 21.45612 -39.13285 12.95788 202.5678 -51.08484 312.5239 339.1017 -352.6605 311.446 149.6603 -1.400324 3.721572 359.9258 -355.7279 18.47139 359.7567 -356.1015 5.108759 0.01524174 -2.210752 16.72186 359.3484
0 0 0 -1.167647 7.170076 1.336592 -354.7646 35.83419 352.5167 -1.353715 345.616 359.198 -326.4427 314.0106 5.929303 -207.1626 355.1741 336.904 -44.00175 321.6116 355.7748 -140.572 6.954876 16.33372 -2.146634 4.304808 359.9834 -357.0966 21.79583 0.3494172 -358.0043 5.331979 0.07953391 -359.6208 13.91859 359.8705
0 0 0 -1.005939 6.597664 5.766153 -1.85642 39.96131 354.4518 -355.9587 347.3496 1.294022 -304.5114 320.7426 18.44633 -242.0429 320.2722 333.7184 -36.61127 314.7649 354.9417 -182.7612 78.36338 50.26463 -1.568432 4.516564 359.9839 -354.8465 18.46314 359.9782 -356.2993 7.038875 0.008857934 -2.339524 16.61791 359.5584
0 0 0 -0.743177 6.0644 5.623045 -357.8912 37.17186 352.9171 -356.6303 345.9889 1.272616 -314.1047 321.5984 17.10229 -321.9066 290.7533 258.6743 -37.77374 318.6647 354.3696 -157.8512 52.51157 23.13568 -2.31781 5.26813 359.9897 -354.8034 18.61112 0.07300895 -354.988 7.485911 359.9489 -4.065833 15.34459 359.3947
0 0 0 -0.5153481 5.378441 5.192914 -356.9026 34.41199 353.1669 -3.752498 341.4376 357.9026 -324.1457 323.2205 14.93687 -217.6563 26.20963 354.6737 -38.4052 321.3279 357.2426 -181.3955 82.08676 48.01474 -1.276032 7.040147 0.02001834 -351.0096 12.65592 0.1296565 -356.9483 7.738514 359.9392 -3.002173 11.50813 359.6467
0 0 0 -0.6924325 6.596846 2.946333 -359.6134 30.18417 354.8752 -356.7928 347.259 1.006838 -329.373 323.2117 7.480643 -224.0529 357.9063 346.9486 -23.19709 323.7533 6.022595 -143.2263 42.74347 10.40168 -359.2411 5.571375 0.02429864 -357.7976 12.96565 359.9376 -0.3931869 5.881852 0.01570047 -357.9203 11.17404 0.09876872
0 0 0 -359.402 6.743152 9.598865 -356.0543 34.06565 350.5863 -358.5124 341.9575 0.6572725 -333.0623 322.8086 12.43961 -227.0776 319.7434 348.5036 -24.63224 317.8203 358.2831 -144.1261 17.27198 14.14639 -357.6905 5.32502 359.9447 -358.474 11.40864 359.5984 -358.1561 7.598598 359.8685 -2.599105 8.171618 359.605
0 0 0 -359.2526 13.46669 171.5862 -357.2027 19.01141 0.4888947 -359.7042 358.4307 0.07290571 -256.7268 69.15419 279.0884 -304.2596 35.02512 99.30119 -125.7121 60.42854 92.22263 -67.29288 35.88394 257.9879 -4.718011 341.1378 359.9756 -348.7501 29.92219 355.0898 -355.8027 346.178 0.165991 -3.682173 23.83952 0.4782849
0 0 0 -359.2899 13.41169 172.6746 -354.9822 15.64391 358.9319 -359.2098 1.93752 359.9036 -218.2789 57.2646 239.3811 -315.8627 21.81457 118.5552 -156.8639 46.71571 117.8508 -53.08684 22.16313 242.4633 -3.830909 340.493 359.963 -352.8497 31.85582 356.9487 -356.8976 343.371 0.2400335 -2.900408 25.64703 0.4609137
0 0 0 -0.1809038 14.43495 173.7651 -353.9405 18.31798 358.8328 -1.949621 358.3715 0.0113881 -222.6204 63.08895 238.3804 -312.6178 26.69124 113.2584 -156.0982 51.89078 118.6122 -54.70532 22.66475 244.1332 -4.575648 348.527 0.295873 -353.3476 23.50071 357.8174 -0.212611 350.2384 0.1604771 -1.737781 19.21845 0.3924554
0 0 0 -358.0664 13.6572 168.3692 -353.742 19.96258 0.6370012 -0.7779363 355.9409 0.1795024 -224.7952 66.70684 240.6934 -315.6554 26.86686 114.6243 -167.9674 40.91742 126.1223 -55.2574 8.26615 231.4724 -3.519152 344.2206 0.05501147 -349.3378 28.93162 355.4645 -353.7513 347.6017 0.01633002 -5.415364 21.19297 0.8717885
